<?xml version="1.0" encoding="UTF-8"?>
<svg id="Layer_1" data-name="Layer 1" xmlns="http://www.w3.org/2000/svg" viewBox="0 0 890.64 304.99">
  <defs>
    <style>
      .cls-1 {
        stroke-width: 0px;
      }

      .cls-1, .cls-2 {
        fill: #FFF;
      }

      .cls-2 {
        font-family: Avenir-Medium, Avenir;
        font-size: 30.79px;
        font-weight: 500;
        letter-spacing: .3em;
      }
    </style>
  </defs>
  <path class="cls-1" d="M169.48,94.48c-6.37,9.47-12.11,19.29-17.16,29.53-1.02,2.07,3,6.08,4.99,4.6,20.86-15.51,39.21-34.25,54.01-55.64,6.96-10.06,13.18-20.63,18.46-31.67,4.35-9.12,8.31-20.59,2.37-29.97-15.41-24.32-45.91,1.5-60.55,12.82-21.51,16.64-41.06,35.82-58,57.1-7.5,9.42-16.18,20.08-15.54,32.84s9.4,20.53,19.77,26.2c23.22,12.7,49.4,17.95,74.37,26.04,11.71,3.79,25.71,7.83,35.28,15.88,5.89,4.95,4.99,10.22.38,15.75-4.71,5.65-10.21,10.67-15.93,15.27-21.9,17.61-47.52,30.5-72.87,42.32-28.71,13.39-57.92,27.11-88.58,35.4-7.66,2.07-15.44,3.78-23.29,4.98-7.28,1.11-16.81,2.57-18.82-6.51-3.55-16.04,6.1-33.1,13.25-46.74,1.58-3.01-5.31-9.36-7.29-5.74-6.67,12.16-13.45,24.95-14.26,39.09-.63,10.93,2.81,23.18,14.09,27.32,11.06,4.07,25.44-.46,36.36-3.15,13.64-3.37,26.94-7.98,39.99-13.17,26.71-10.61,53.23-22.55,78.72-35.82,23.15-12.05,48.29-25.84,65.24-46.17,18.44-22.11-18.82-37.71-34.8-43.88-24.94-9.64-51.6-14.7-75.75-26.39-4.61-2.23-11.49-4.79-14.37-9.24-3.54-5.46-1.42-13.49,1.03-18.87,5.51-12.11,15.62-22.87,24.32-32.78,18.01-20.52,38.5-38.66,60.73-54.5,6.28-4.47,13.08-9.63,21.05-10.23,3.17-.24,7.21.04,9.53,2.5,2.45,2.6,2.4,6.88,2.05,10.19-.71,6.75-3.79,13.04-6.76,19.04-3.16,6.38-6.62,12.61-10.35,18.67-15.29,24.78-35.36,46.42-58.52,64.01l4.99,4.6c4.8-10.22,10.23-20.08,16.33-29.59,1.1-1.72-3.31-5.8-4.45-4.1h0Z"/>
  <path class="cls-1" d="M265.2,150.89c-5.27,11.09-9.71,22.5-13.05,34.31-2.32,8.23-5.36,22.21,5.81,25.76,4.54,1.44,8.7-1.68,11.74-4.69,4.08-4.03,7.75-8.57,11.48-12.91,7.97-9.29,16.68-18.63,23.03-29.13,1.22-2.02-3.47-6.77-5.33-4.91-6.57,6.56-12.1,14.22-18.22,21.21-5.74,6.56-11.68,14.55-18.61,19.9-1.05.88-2.21,1.57-3.49,2.07.05,3.16-.02,3.23-.21.23,0-1.9.47-3.79.93-5.62,1.17-4.66,2.79-9.24,4.39-13.76,3.05-8.66,6.5-17.14,10.45-25.43,1.81-3.8-6.78-11.49-8.91-7.02h0Z"/>
  <path class="cls-1" d="M299.62,160.94c-5.16,8.72-8.12,19.12-9.61,29.09-.39,2.61,5.26,8.97,7.8,6.18,5.55-6.09,11.6-11.54,18.16-16.53,1.58-1.2,4.51-2.53,5.69-4.09,2.19-.48,2.08-1.54-.34-3.17l-.04,1.85c-.87,2.92-.69,8.79.03,11.8,1.34,5.61,6.52,7.72,11.45,5.22,7.35-3.73,14.32-8.72,20.94-13.59l-5.25-4.84c-1.28,6.22-2.82,20.88,6.97,21.29,4.13.18,9.02-3.55,12.39-5.66,4.83-3.02,9.92-6.47,13.62-10.85,1.39-1.65-1.98-5.19-3.74-4.01-5.44,3.65-10.34,7.84-16.13,11.01-1.1.6-6.13,4-7.29,3.53-2.64-1.06-.65-9.18-.26-10.93.49-2.21-2.85-6.54-5.25-4.84-3.61,2.56-7.29,5.01-11.07,7.33-2.05,1.26-10.07,7.55-12.56,6.09l2.76,2.96c-1.28-2.27-.03-7.37.1-9.87.11-2.25.43-4.58-.58-6.69-1.56-3.26-5.08-5.45-8.67-4.7-4.81.99-9.72,5.41-13.54,8.29-5.14,3.87-9.99,8.17-14.59,12.68l7.65,7.05c2.01-10.02,5.13-19.29,8.66-28.85,1.14-3.1-5.14-9.39-7.29-5.74h0Z"/>
  <path class="cls-1" d="M385.91,161.43c-9.03,6.65-13.88,17.07-15.24,27.99-.29,2.29,3.04,6.02,5.4,5.79,9.87-.94,18.39-8.01,20.74-17.79.95-3.96,1.18-8.79-.97-12.41-1.62-2.72-5.98-6.54-8.96-3.67-2.23,2.15,2.3,6.06,4.27,6.25,8.95.86,18.1.71,27.09.96,1,.03,2,.06,3,.08-1.44-2.77-2.25-2.83-2.43-.2-.95,1.3-1.18,4.12-1.62,5.63-1.26,4.37-2.52,8.74-3.8,13.1-.95,3.24,4.03,8.82,7.31,6.74,5.33-3.38,10.47-7.09,15.68-10.67,2.26-1.55,5.19-4.56,7.75-5.43l.92-1.23c-.05.93-.12,1.86-.22,2.78-.07,1.2-.17,2.38,0,3.58,1.2,8.17,9.3,11.3,16.61,10.01,5.37-.95,10.56-3.53,15.63-5.45,5.79-2.19,11.56-4.4,17.32-6.66,12.42-4.87,24.76-9.91,36.95-15.33,2.71-1.2-1.47-6.47-3.78-5.56-12.16,4.78-24.31,9.62-36.51,14.28-6.1,2.33-12.21,4.62-18.34,6.86-5.33,1.95-11.03,4.7-16.73,5.21-.88.08-2.43.31-3.26-.02-1.92-.76-1.25-.97-.91-3.08.36-2.24.52-4.42-.12-6.62-1.02-3.48-3.94-6.97-7.64-7.74-4.83-1-10.03,4.04-13.73,6.51-5.51,3.69-11.14,7.25-16.51,11.15l7.31,6.74c1.53-6.44,3.14-12.87,4.67-19.31,1.01-4.25,1.23-7.77-2.59-10.74s-9.77-1.96-14.33-2.04c-6.9-.13-13.92-.57-20.81-.19l4.27,6.25c-1.23-1.25-1.73-1.31-1.5-.18.04.67.03,1.33-.02,2-.1,1.33-.38,2.6-.78,3.87-.8,2.58-2.09,5.01-3.77,7.12-3.39,4.25-8.29,7.12-13.73,7.62l5.4,5.79c1.08-10.39,5.87-19.21,12.58-27.04,1.72-2.01-2.5-6.54-4.64-4.97h0Z"/>
  <path class="cls-1" d="M278.82,131.48c1-.66,2.03-1.15,3.12-1.65,1.35-.62,2.3-1.49,3.3-2.58,1.19-1.3.32-3.47-.55-4.69-1.23-1.73-2.87-2.97-4.96-3.37-1.81-.34-3.74-.5-5.46.23-1.55.66-3.02,1.5-4.43,2.42-.91.59-.78,2.37-.59,3.19.34,1.47,1.34,3.08,2.39,4.14,1.76,1.8,4.7,3.94,7.19,2.3h0Z"/>
  <path class="cls-1" d="M619.17,86.27c-28.41,54.94-48.57,114.14-62.94,174.23-.78,3.25,6.16,9.14,7.08,5.57,15.57-60.17,37.07-118.34,61.32-175.5.99-2.33-4.04-7.05-5.46-4.3h0Z"/>
  <path class="cls-1" d="M522.45,83.51l1.14,1.13c.8,1.48,1.3,1.55,1.5.21.25-.18.65-1.34.83-1.6.98-1.45,2.41-2.53,3.71-3.69,3.05-2.71,6.13-5.37,9.25-7.99,6.25-5.24,12.63-10.34,19.17-15.21,13.32-9.91,27.38-18.79,42.24-26.22,29.87-14.93,63.53-23.67,97.06-21.12,14.91,1.13,35.36,2.75,40.4,19.6,4.73,15.83-3.2,31.8-12.28,44.39-17.69,24.54-40.78,44.86-65.4,62.21-28.28,19.94-58.95,35.92-88.94,53.05-2.33,1.33,2.55,7.22,4.87,6.09,31.09-15.06,61.79-31.62,90.11-51.46,27.61-19.34,55.66-43.17,72.72-72.72,7.96-13.8,11.52-30.61,4.25-45.5-7.69-15.75-23.67-20.7-39.86-23.07-37.53-5.49-75.93,3.52-109.42,20.55-18.08,9.2-34.92,20.77-50.64,33.55-4.06,3.3-8.03,6.73-11.93,10.23-3.6,3.22-7.91,6.45-10.94,10.24-3.54,4.43-2.61,11.72,3.57,13.2,4.5,1.07.66-4.97-1.44-5.87h0Z"/>
  <path class="cls-1" d="M584.65,192.45c41.36,37.67,92.43,64.35,146.11,79.61,27.84,7.92,56.6,12.81,85.51,14.31,22.61,1.17,59.08,3.98,68.21-23.01,10.09-29.84-20.3-53.68-40.9-69.16-3.55-2.67-3.95,1.67-1.41,3.72,17.51,14.13,45.74,35.23,35.26,61.42-10.01,25.01-46.83,20.42-68.2,18.92-53.28-3.74-105.91-18.83-153.01-44.04-24.88-13.32-48.14-29.53-68.98-48.57-1.47-1.35-4.8-2.61-5.93-.25-1.18,2.49,1.77,5.62,3.34,7.05h0Z"/>
  <path class="cls-1" d="M684.4,154.86c-6.03,8.65-29,38.32-8.88,44.14,7.1,2.05,12.15-3.61,14.6-9.54,2.94-7.13,5.64-15.57,1-22.51-1.44-2.15-4.74-2.12-3,.9,2.85,4.95-.09,11.79-2.12,16.55-1.1,2.58-7.21,12.71-11.08,8.19-2.39-2.8,4.54-12.18,6.19-15.06,3.08-5.35,6.33-10.56,9.87-15.61,2.23-3.18-4.64-9.85-6.59-7.06h0Z"/>
  <path class="cls-1" d="M689.99,165.4c12.38-7.67,24.02-16.46,34.67-26.4s19.72-21.2,29.26-32.14c2.24-2.57-3.88-8.57-5.77-6.18-18.31,23.2-32.68,50.59-39.73,79.38-.63,2.58,3.96,8.82,6.74,6.22,4.74-4.42,9.67-8.62,14.57-12.86s9.74-9.99,15.41-12.68c4.02-1.9,3.39-.7,1.87,2.84-1.15,2.66-2.95,5.03-4.61,7.38-3.41,4.82-7.07,9.45-10.96,13.89-7.41,8.45-15.66,16.17-24.59,22.98-9.67,7.38-22.01,16.01-34.88,13.23-4.33-.93-1.08,5.21,1.44,5.9,14.69,4.03,27.81-4.51,39.06-13.11,12.28-9.38,23.26-20.45,32.56-32.79,3.53-4.69,8.69-10.4,9.44-16.48.62-5.05-2.75-10.26-7.79-11.46-6.64-1.57-12.38,5.11-16.92,8.93-6.94,5.85-13.8,11.82-20.96,17.41l6.74,6.22c8.86-28.33,20.97-54.66,38.36-78.82l-6.12-5.64c-14.24,24.52-38.28,44.69-62.03,59.66-1.86,1.18,2.11,5.83,4.22,4.53h0Z"/>
  <path class="cls-1" d="M770.19,155.63c-4.46,6.31-9.38,15.27-8.37,23.34.74,5.92,6.24,10.49,12.18,9.49,7.12-1.21,13.46-7.93,18.48-12.64,6.44-6.05,11.12-13.49,17.25-19.72l-5.83-6.25c-6.69,7.46-11.12,18.1-13.29,27.79-.61,2.72,3.68,9.43,7.04,7.55,10.36-5.8,20.66-11.7,30.47-18.39-2.05-1.89-4.09-3.77-6.14-5.66-.89,4.89,1.26,9.27,5.19,12.29,5,3.84,11.45,3.23,17.36,2.94,15.12-.75,30.29-2.19,45.18-4.94,2.79-.52-1.43-5.87-3.81-5.6-9.92,1.12-19.83,2.22-29.79,2.98-4.57.35-9.13.62-13.71.83-2.36.11-15.25,1.84-13.93-3.38.71-2.8-3.28-7.31-6.14-5.66-9.97,5.75-20.05,11.26-30.57,15.95l7.04,7.55c2.83-10.13,6.99-19,11.28-28.54,1.29-2.86-5.16-8.46-6.55-5.16-4.39,10.35-14.98,19.62-23.96,26.04-2.14,1.53-4.33,3.17-6.81,4.12-1.01.38-2.09.76-3.19.74-1.02-.05-1.08.04-.16.28l.18-1.64c1.18-3.19,1.51-6.69,2.79-9.91,1.17-2.94,2.67-5.67,4.38-8.33,1.62-2.51-4.81-8.58-6.59-6.07h0Z"/>
  <path class="cls-1" d="M787.41,127.87c2.44-2.01,4.77-3.92,6.7-6.44,1.22-1.59.14-3.66-.94-5.01-.92-1.15-3.45-3.52-5.18-2.63-1.57.81-3.05,1.63-4.47,2.71-1.31.99-2.54,2.09-3.79,3.15-1.86,1.57.32,5.02,1.53,6.26,1.34,1.37,4.2,3.57,6.14,1.97h0Z"/>
  <text class="cls-2" transform="translate(207.14 268.29)"><tspan x="0" y="0">PHOTOGRAPHY</tspan></text>
</svg>