<svg id="effe15bb-588b-41f9-b7c9-f7ba069ef625" data-name="Capa 1" xmlns="http://www.w3.org/2000/svg" viewBox="0 0 1000 1000"><defs><style>.b8dcbcd3-6a98-45a1-bb81-bdb4099c1da2{fill:none;}path { fill: #000000; } @media (prefers-color-scheme: dark) {path { fill: #ffffff; }}</style></defs><title>Initials-Untagged-Black1</title><rect class="b8dcbcd3-6a98-45a1-bb81-bdb4099c1da2" width="1000" height="1000"/><path d="M392.36,385.09a314.9,314.9,0,0,0-21,36.13c-1.25,2.54,3.68,7.44,6.11,5.63a292.34,292.34,0,0,0,66.09-68.07A282.28,282.28,0,0,0,466.14,320c5.33-11.16,10.17-25.19,2.9-36.68C450.19,253.59,412.87,285.19,395,299a416.24,416.24,0,0,0-71,69.86c-9.18,11.53-19.8,24.57-19,40.19.77,15.32,11.5,25.11,24.18,32.05,28.42,15.54,60.45,22,91,31.86,14.34,4.64,31.46,9.58,43.17,19.42,7.21,6.05,6.11,12.51.46,19.27a136.7,136.7,0,0,1-19.49,18.69c-26.79,21.54-58.14,37.32-89.16,51.78-35.13,16.38-70.86,33.17-108.38,43.32a259.25,259.25,0,0,1-28.49,6.1c-8.91,1.36-20.57,3.14-23-8-4.34-19.62,7.46-40.49,16.22-57.18,1.93-3.68-6.5-11.45-8.93-7-8.16,14.88-16.45,30.53-17.44,47.83-.77,13.37,3.44,28.36,17.23,33.43,13.54,5,31.13-.56,44.49-3.86a377.56,377.56,0,0,0,48.94-16.11,1041.84,1041.84,0,0,0,96.31-43.82c28.32-14.74,59.08-31.61,79.83-56.49,22.56-27.06-23-46.14-42.58-53.69-30.51-11.79-63.14-18-92.68-32.3-5.64-2.73-14.07-5.86-17.59-11.3-4.33-6.69-1.74-16.51,1.26-23.09,6.73-14.81,19.1-28,29.75-40.11a432.67,432.67,0,0,1,74.3-66.68c7.68-5.47,16-11.78,25.76-12.51,3.88-.3,8.82,0,11.66,3.06,3,3.18,2.93,8.41,2.5,12.46-.87,8.26-4.64,15.95-8.27,23.3q-5.81,11.72-12.67,22.84a290.22,290.22,0,0,1-71.61,78.32l6.11,5.63a314.77,314.77,0,0,1,20-36.2c1.34-2.11-4.05-7.09-5.45-5Z"/><path d="M561.14,435.29c-34.76,67.22-59.43,139.65-77,213.17-.95,4,7.53,11.18,8.66,6.83,19-73.63,45.35-144.8,75-214.74,1.2-2.84-5-8.63-6.68-5.26Z"/><path d="M442.8,431.91l1.4,1.38q1.46,2.71,1.83.26a13.38,13.38,0,0,0,1-2,25.51,25.51,0,0,1,4.54-4.51q5.6-5,11.32-9.78c7.64-6.41,15.45-12.65,23.45-18.61A346.54,346.54,0,0,1,538,366.61c36.55-18.27,77.73-29,118.76-25.84,18.24,1.38,43.27,3.36,49.43,24,5.8,19.36-3.91,38.9-15,54.31-21.64,30-49.89,54.89-80,76.12-34.61,24.4-72.12,43.95-108.82,64.91-2.85,1.63,3.12,8.83,6,7.45,38-18.42,75.6-38.68,110.26-63,33.78-23.66,68.1-52.82,89-89,9.74-16.88,14.09-37.46,5.2-55.67-9.41-19.27-29-25.32-48.77-28.23C618.08,325,571.1,336,530.13,356.85c-22.12,11.26-42.73,25.41-62,41-5,4.05-9.82,8.24-14.59,12.52-4.41,3.94-9.68,7.89-13.38,12.52-4.33,5.43-3.19,14.35,4.37,16.15,5.5,1.31.8-6.08-1.76-7.18Z"/><path d="M517.45,563.86C554,608,602.38,642.57,656.71,661.19A272.25,272.25,0,0,0,737.79,676c13.46.34,28.26.52,40.34-6.28,10.36-5.83,16.29-16.34,18.31-27.83,5.64-32-16.33-57.72-37.52-78.64-3.45-3.4-6.69-.53-3.31,3.09,17.46,18.73,36.64,39.95,32.91,67.56-1.6,11.88-7.95,22.94-19.09,28.12-11.67,5.41-25.48,4.77-38,4.22-51-2.23-100.9-19.92-143-48.58a311,311,0,0,1-64.86-59.45c-1.53-1.85-5.77-4.73-8.07-2.58-2.45,2.27.54,6.46,2,8.23Z"/></svg>